<?xml version="1.0" encoding="UTF-8" standalone="no"?>
<!-- Created with Inkscape (http://www.inkscape.org/) -->

<svg
   xmlns:dc="http://purl.org/dc/elements/1.1/"
   xmlns:cc="http://creativecommons.org/ns#"
   xmlns:rdf="http://www.w3.org/1999/02/22-rdf-syntax-ns#"
   xmlns:svg="http://www.w3.org/2000/svg"
   xmlns="http://www.w3.org/2000/svg"
   xmlns:sodipodi="http://sodipodi.sourceforge.net/DTD/sodipodi-0.dtd"
   xmlns:inkscape="http://www.inkscape.org/namespaces/inkscape"
   width="142.80077"
   height="53.914669"
   viewBox="0 0 37.782703 14.264922"
   version="1.1"
   id="svg2374"
   inkscape:version="0.92.0 r15299"
   sodipodi:docname="citb.svg">
  <defs
     id="defs2368">
    <clipPath
       id="clipPath2157"
       clipPathUnits="userSpaceOnUse">
      <path
         inkscape:connector-curvature="0"
         id="path2155"
         d="M 0,0 H 595.276 V 841.89 H 0 Z" />
    </clipPath>
  </defs>
  <sodipodi:namedview
     id="base"
     pagecolor="#ffffff"
     bordercolor="#666666"
     borderopacity="1.0"
     inkscape:pageopacity="0.0"
     inkscape:pageshadow="2"
     inkscape:zoom="6.3257767"
     inkscape:cx="70.900384"
     inkscape:cy="26.457344"
     inkscape:document-units="mm"
     inkscape:current-layer="layer1"
     showgrid="false"
     fit-margin-top="0"
     fit-margin-left="0"
     fit-margin-right="0"
     fit-margin-bottom="0"
     units="px"
     inkscape:window-width="1280"
     inkscape:window-height="744"
     inkscape:window-x="-4"
     inkscape:window-y="-4"
     inkscape:window-maximized="1" />
  <metadata
     id="metadata2371">
    <rdf:RDF>
      <cc:Work
         rdf:about="">
        <dc:format>image/svg+xml</dc:format>
        <dc:type
           rdf:resource="http://purl.org/dc/dcmitype/StillImage" />
        <dc:title></dc:title>
      </cc:Work>
    </rdf:RDF>
  </metadata>
  <g
     inkscape:label="Layer 1"
     inkscape:groupmode="layer"
     id="layer1"
     transform="translate(-139.99094,-187.68168)">
    <g
       id="g2480"
       transform="translate(0.13229133,-0.13228908)">
      <path
         d="m 163.50837,194.94855 c 0,3.86397 3.13408,6.99805 7.00229,6.99805 3.86538,0 6.9984,-3.13408 6.9984,-6.99805 0,-3.86609 -3.13302,-7.00229 -6.9984,-7.00229 -3.86821,0 -7.00229,3.1362 -7.00229,7.00229"
         style="fill:#0067c5;fill-opacity:1;fill-rule:nonzero;stroke:none;stroke-width:0.35277778"
         id="path2161"
         inkscape:connector-curvature="0" />
      <path
         d="m 147.88515,194.94855 c 0,3.86397 3.13549,6.99805 7.00229,6.99805 3.86503,0 6.99981,-3.13408 6.99981,-6.99805 0,-3.86609 -3.13478,-7.00229 -6.99981,-7.00229 -3.8668,0 -7.00229,3.1362 -7.00229,7.00229"
         style="fill:#286d70;fill-opacity:1;fill-rule:nonzero;stroke:none;stroke-width:0.35277778"
         id="path2165"
         inkscape:connector-curvature="0" />
      <path
         d="m 155.72895,194.94855 c 0,3.86397 3.13408,6.99805 6.99911,6.99805 3.86609,0 7.00299,-3.13408 7.00299,-6.99805 0,-3.86609 -3.1369,-7.00229 -7.00299,-7.00229 -3.86503,0 -6.99911,3.1362 -6.99911,7.00229"
         style="fill:#002c61;fill-opacity:1;fill-rule:nonzero;stroke:none;stroke-width:0.35277778"
         id="path2169"
         inkscape:connector-curvature="0" />
      <path
         d="m 139.99094,194.94855 c 0,3.86397 3.13549,6.99805 6.99911,6.99805 3.8675,0 7.00088,-3.13408 7.00088,-6.99805 0,-3.86609 -3.13338,-7.00229 -7.00088,-7.00229 -3.86362,0 -6.99911,3.1362 -6.99911,7.00229"
         style="fill:#663762;fill-opacity:1;fill-rule:nonzero;stroke:none;stroke-width:0.35277778"
         id="path2173"
         inkscape:connector-curvature="0" />
      <path
         d="m 149.61249,193.49955 c -0.3235,-0.8001 -1.02023,-1.31621 -1.84609,-1.31621 -1.17369,0 -2.05175,1.05762 -2.05175,2.61972 0,1.25201 0.61877,2.59363 2.05175,2.59363 0.86537,0 1.44604,-0.49001 1.84609,-1.25166 l 0.45191,0.16757 c -0.41381,1.36878 -1.38218,2.06551 -2.80212,2.06551 -2.02494,0 -3.36761,-1.51024 -3.36761,-3.48509 0,-2.07751 1.22449,-3.67771 3.40748,-3.67771 1.40617,0 2.45251,0.69674 2.76225,2.12902 z"
         style="fill:#ffffff;fill-opacity:1;fill-rule:nonzero;stroke:none;stroke-width:0.35277778"
         id="path2177"
         inkscape:connector-curvature="0" />
      <path
         d="m 154.83388,191.12409 c -0.52881,0 -0.95532,-0.45191 -0.95532,-0.96802 0,-0.51612 0.43921,-0.95568 0.95532,-0.95568 0.51752,0 0.96802,0.42686 0.96802,0.95568 0,0.52916 -0.43921,0.96802 -0.96802,0.96802 m -0.8382,0.85196 h 1.71485 v 6.60717 h -1.71485 z"
         style="fill:#ffffff;fill-opacity:1;fill-rule:nonzero;stroke:none;stroke-width:0.35277778"
         id="path2181"
         inkscape:connector-curvature="0" />
      <path
         d="m 162.99568,196.55729 c 0,0.70944 0.30939,1.45874 1.18745,1.45874 0.22084,0 0.42545,-0.0519 0.63288,-0.12912 l 0.19403,0.4124 c -0.55562,0.3877 -1.02023,0.52881 -1.69016,0.52881 -1.34373,0 -2.05246,-0.79939 -2.05246,-2.0514 v -3.76908 h -1.04528 v -1.03152 h 1.04528 v -1.79352 h 1.72826 v 1.79352 h 1.51024 v 1.03152 h -1.51024 z"
         style="fill:#ffffff;fill-opacity:1;fill-rule:nonzero;stroke:none;stroke-width:0.35277778"
         id="path2185"
         inkscape:connector-curvature="0" />
      <path
         d="m 169.94607,189.47224 v 3.26496 c 0.49071,-0.70944 1.16134,-1.03258 2.03764,-1.03258 1.98932,0 2.81411,1.75542 2.81411,3.51014 0,2.4264 -1.49613,3.665 -2.91606,3.665 -0.8001,0 -1.44498,-0.36124 -1.93569,-0.98001 v 0.68333 h -1.71697 v -9.11084 z m 0,7.58825 c 0.33479,0.4385 0.7747,0.762 1.38007,0.762 1.39488,0 1.67745,-1.57551 1.67745,-2.65889 0,-1.03222 -0.37253,-2.4003 -1.63794,-2.4003 -0.61948,0 -1.11161,0.33514 -1.41958,0.86466 z"
         style="fill:#ffffff;fill-opacity:1;fill-rule:nonzero;stroke:none;stroke-width:0.35277778"
         id="path2189"
         inkscape:connector-curvature="0" />
    </g>
  </g>
</svg>
